Coordinates
version=1
nRows=17
nColumns=34
inDegrees=yes

Units are S.I. units (second, meters, Newtons, ...)
If the header above contains a line with 'inDegrees', this indicates whether rotational values are in degrees (yes) or radians (no).

endheader
time	pelvis_tilt	pelvis_list	pelvis_rotation	pelvis_tx	pelvis_ty	pelvis_tz	hip_flexion_r	hip_adduction_r	hip_rotation_r	knee_angle_r	ankle_angle_r	subtalar_angle_r	mtp_angle_r	hip_flexion_l	hip_adduction_l	hip_rotation_l	knee_angle_l	ankle_angle_l	subtalar_angle_l	mtp_angle_l	lumbar_extension	lumbar_bending	lumbar_rotation	arm_flex_r	arm_add_r	arm_rot_r	elbow_flex_r	pro_sup_r	arm_flex_l	arm_add_l	arm_rot_l	elbow_flex_l	pro_sup_l
      0.00000000	    -14.35308558	      4.04850878	     -2.01263806	     -0.11843642	      0.85530068	      0.06134331	     -2.14852247	      1.57564079	      2.11871225	     10.47258649	      2.15136897	     -0.27957627	      0.00000000	     40.42703530	      3.80003079	      1.12353710	     46.36673290	     -1.57964845	    -23.55375077	      0.00000000	      4.27703004	     -3.80256303	      4.07572693	     11.39921809	    -13.54593645	      9.83064533	    104.88525828	    100.98179892	    -26.08767018	    -13.07221334	      2.37021245	     82.33121284	     73.52024677
      0.00833330	    -14.88836365	      3.27809295	     -2.65249481	     -0.11704856	      0.86128695	      0.06071138	     -2.34088911	      2.20656228	      4.64908171	     10.15361060	      0.37704933	     -0.45416844	      0.00000000	     41.72110703	      3.20671263	      0.15851619	     45.25672536	      0.28861671	    -19.47686354	      0.00000000	      4.49948997	     -2.78369537	      5.44737126	     10.97234777	    -13.54237517	      9.17191328	    104.41025566	    100.24477663	    -27.21659519	    -12.16372573	      1.98960914	     84.07045465	     74.51592256
      0.01666670	    -14.77818668	      3.40354764	     -2.40376346	     -0.11699851	      0.86547487	      0.06132349	     -3.81308134	      1.66977524	      3.56782421	      9.45532386	     -1.83222384	     -0.85066431	      0.00000000	     40.98961646	      3.72775736	     -0.36604905	     41.04333701	      0.36218431	    -18.26992471	      0.00000000	      4.31838950	     -3.51372082	      5.62907377	     11.73836032	    -13.49698586	      9.80470158	    103.72401706	     99.87526198	    -27.88245491	    -13.54636981	      1.89786761	     83.75375637	     75.88755011
      0.02500000	    -14.11557021	      3.26456275	     -2.53094774	     -0.11715414	      0.87041314	      0.06193525	     -5.35217800	      1.50842750	      3.05748929	     10.33579318	     -4.23105136	     -0.39028849	      0.00000000	     39.62372002	      4.18351579	      0.25351167	     36.46691396	      0.04402079	    -16.74996751	      0.00000000	      3.35955976	     -3.65747964	      6.17589484	     12.37573067	    -13.82584000	     11.52353913	    102.91284653	     99.73389169	    -28.44342524	    -13.63869390	      0.92213291	     83.87366751	     78.53822470
      0.03333330	    -13.75230094	      3.03344514	     -2.68746584	     -0.11704402	      0.87386881	      0.06306178	     -6.16117305	      1.47416757	      2.53702056	     12.03791202	     -6.12130291	      0.25049034	      0.00000000	     38.39722641	      4.31684041	      1.06015240	     31.73224577	     -0.23177934	    -14.28027695	      0.00000000	      2.94859106	     -3.55973290	      6.74090990	     12.51302226	    -13.97887925	     12.71498357	    101.92237871	     99.77269349	    -28.71480088	    -13.10992203	     -0.26359065	     83.15432108	     81.11378221
      0.04166670	    -13.08727551	      2.82595459	     -2.95929346	     -0.11711967	      0.87615653	      0.06440915	     -6.62308072	      1.37879266	      1.96117982	     15.05438021	     -8.00887326	      0.19518384	      0.00000000	     36.79557432	      4.28989355	      1.66643063	     27.43651316	     -0.54863640	    -11.08415857	      0.00000000	      2.07987006	     -3.65850005	      7.17610493	     12.97149281	    -14.21095796	     13.85964510	    101.04776741	     99.85959396	    -28.91887315	    -12.72939117	     -1.29887497	     83.30510962	     83.76150161
      0.05000000	    -12.71484359	      2.73697975	     -3.16292065	     -0.11655008	      0.87742615	      0.06566466	     -6.27564410	      1.08729787	      1.28574166	     19.05900115	     -9.11850617	     -0.21687813	      0.00000000	     35.51167427	      4.37953305	      2.52881018	     23.84558403	     -1.40507676	     -8.75265987	      0.00000000	      1.71499626	     -3.86500736	      7.75458620	     12.61566721	    -14.49833581	     14.59356976	    100.26917627	     99.90629603	    -28.78336102	    -12.65136245	     -2.02271054	     83.12928155	     84.72124161
      0.05833330	    -11.97229488	      2.62824468	     -3.55004954	     -0.11633318	      0.87856310	      0.06731382	     -5.76234370	      0.75654000	      0.85004237	     24.07240955	     -9.92507790	     -1.49161869	      0.00000000	     34.00340073	      4.21164263	      2.69864299	     21.24288123	     -1.15533683	     -5.36567503	      0.00000000	      0.73720127	     -4.03278834	      8.05164496	     12.84661287	    -14.48259992	     15.54914784	     98.95246257	     99.93608363	    -28.36899566	    -12.32775386	     -3.00984576	     83.01708107	     86.79352723
      0.06666670	    -11.54253628	      2.89290653	     -3.81144054	     -0.11578836	      0.87781637	      0.06867292	     -4.68679056	      0.00948287	      0.50425536	     29.62736197	    -10.01752692	     -2.84044549	      0.00000000	     32.80765852	      4.52923623	      3.30112245	     19.08414421	     -1.70604533	     -3.76361108	      0.00000000	      0.25459889	     -4.70513474	      8.37670874	     12.25765687	    -14.38707738	     16.21160542	     97.83832244	     99.93600742	    -27.87625299	    -12.55365379	     -3.67217745	     83.19781465	     87.77270460
      0.07500000	    -11.09794159	      3.14955789	     -4.04741836	     -0.11569835	      0.87620717	      0.06999825	     -3.49256316	     -0.74850226	      0.22229443	     35.35912790	    -10.36595414	     -4.88996273	      0.00000000	     31.91091078	      4.75002995	      3.39084733	     17.97892672	     -1.73827486	     -1.67868154	      0.00000000	     -0.17760504	     -5.34074735	      8.52124430	     11.74025969	    -14.03559465	     16.79835147	     95.91634987	     99.83587737	    -27.55559724	    -12.80146166	     -4.57485353	     83.87723511	     89.78630516
      0.08333330	    -10.76506918	      3.59629323	     -4.15142063	     -0.11550605	      0.87321817	      0.07129043	     -2.21828499	     -1.68717286	      0.02163895	     41.04848836	    -10.69547801	     -6.85026347	      0.00000000	     31.01093047	      5.25102970	      3.79126884	     16.98286371	     -1.92538427	     -0.62857262	      0.00000000	     -0.38554442	     -6.18324468	      8.34291523	     10.98178883	    -13.39981866	     17.43109047	     94.00272803	     99.53132005	    -27.49266568	    -13.08204853	     -5.95183494	     84.94352312	     93.07673342
      0.09166670	    -10.21862242	      4.03068444	     -4.40375000	     -0.11573150	      0.87016128	      0.07249046	     -1.09284816	     -2.71301577	     -0.07061611	     46.65888124	    -11.19346984	     -8.19578773	      0.00000000	     29.86833127	      5.68928603	      3.83259670	     16.30064055	     -2.57028408	     -0.29157460	      0.00000000	     -0.95502266	     -6.96177894	      8.64653845	      9.78019830	    -13.13375602	     17.77476530	     92.51484778	     99.47390201	    -26.70628534	    -13.56965766	     -6.44992733	     85.59979791	     93.60649674
      0.10000000	     -9.81464583	      4.32432516	     -4.54896218	     -0.11603578	      0.86582384	      0.07363221	      0.17125718	     -3.54665104	     -0.15212457	     52.20330662	    -12.29192983	    -10.41292219	      0.00000000	     28.92099084	      6.01100222	      3.80902661	     16.07021389	     -2.77915893	      0.07614484	      0.00000000	     -1.19979421	     -7.56539261	      8.72955850	      8.49440169	    -12.48453656	     17.53091913	     90.35736244	     99.31605163	    -26.26462314	    -14.18827842	     -6.93664589	     87.09494164	     94.42937500
      0.10833330	     -9.44039435	      4.53399488	     -4.65854373	     -0.11629687	      0.86049492	      0.07458759	      1.44207265	     -4.32705500	     -0.24350363	     57.55119772	    -13.46433868	    -12.47028403	      0.00000000	     27.91778464	      6.29666135	      3.77233733	     16.05281070	     -2.72614724	      0.14524472	      0.00000000	     -1.40912106	     -8.07015170	      8.65217753	      7.06494485	    -11.90469853	     17.25632183	     88.21790259	     99.15580186	    -25.87117321	    -14.81005452	     -7.42899339	     88.67259682	     95.21481494
      0.11666670	     -9.07691636	      4.74804522	     -4.78121272	     -0.11643001	      0.85467309	      0.07545855	      2.72261234	     -5.11760171	     -0.28550326	     62.81148630	    -14.61545413	    -14.51942767	      0.00000000	     26.80154578	      6.62230044	      3.73763374	     16.15290928	     -2.37056733	     -0.02470735	      0.00000000	     -1.50641786	     -8.48878479	      8.57968256	      5.46581786	    -11.41075859	     16.93801014	     86.01855602	     99.03129098	    -25.46164039	    -15.50808651	     -7.81054948	     90.37165316	     95.79244723
      0.12500000	     -8.83324506	      4.83978102	     -4.77831205	     -0.11673936	      0.84921001	      0.07586798	      4.12174484	     -5.78662122	     -0.41773269	     67.85850868	    -15.74945833	    -16.55117405	      0.00000000	     25.79103355	      6.92466217	      3.80188776	     16.57442410	     -1.55936929	     -0.45402299	      0.00000000	     -1.50769020	     -8.73529661	      8.21672491	      3.90211643	    -10.82808231	     16.30671733	     83.66609406	     98.88698382	    -24.96176425	    -16.22008925	     -8.03090448	     92.23134247	     96.39977490
      0.13333330	     -8.68131826	      4.90893821	     -4.66913950	     -0.11703288	      0.84396525	      0.07592024	      5.62057482	     -6.46811658	     -0.62543895	     72.41925934	    -16.99126251	    -18.48081347	      0.00000000	     24.78540581	      7.29498842	      3.95188712	     17.17400000	     -0.29429144	     -1.06122288	      0.00000000	     -1.41317380	     -8.87604621	      7.55495958	      2.38078761	    -10.16616385	     15.47090303	     81.30744498	     98.72133056	    -24.29369908	    -16.97308430	     -8.12907460	     94.07580181	     97.13602679
